<svg xmlns="http://www.w3.org/2000/svg" viewBox="0 0 64 64" role="img" aria-label="LexIA">
  <defs>
    <linearGradient id="lex-gradient" x1="12%" y1="8%" x2="88%" y2="92%">
      <stop offset="0%" stop-color="hsl(192 95% 55%)" />
      <stop offset="100%" stop-color="hsl(270 80% 62%)" />
    </linearGradient>
  </defs>

  <rect x="6" y="6" width="52" height="52" rx="14" fill="url(#lex-gradient)" />

  <g
    transform="translate(8 8) scale(2)"
    fill="none"
    stroke="hsl(228 18% 7%)"
    stroke-width="2.5"
    stroke-linecap="round"
    stroke-linejoin="round"
  >
    <path d="m16 16 3-8 3 8c-.87.65-1.92 1-3 1s-2.13-.35-3-1Z" />
    <path d="m2 16 3-8 3 8c-.87.65-1.92 1-3 1s-2.13-.35-3-1Z" />
    <path d="M7 21h10" />
    <path d="M12 3v18" />
    <path d="M3 7h2c2 0 5-1 7-2 2 1 5 2 7 2h2" />
  </g>

  <g transform="translate(50 50)">
    <circle r="10" fill="hsl(160 85% 45%)" />
    <g transform="scale(0.42) translate(-12 -12)" fill="hsl(228 18% 7%)" stroke="none">
      <path d="M4 14a1 1 0 0 1-.78-1.63l9.9-10.2a.5.5 0 0 1 .86.46l-1.92 6.02A1 1 0 0 0 13 10h7a1 1 0 0 1 .78 1.63l-9.9 10.2a.5.5 0 0 1-.86-.46l1.92-6.02A1 1 0 0 0 11 14z" />
    </g>
  </g>
</svg>
